# xmcd
#
# Track frame offsets:
#	150
#	24566
#	44672
#	65869
#	84874
#	105868
#	134215
#	159960
#	182463
#	212731
#	236420
#	259989
#	283134
#
# Disc length: 4073 seconds
#
# Revision: 1
# Processed by: cddbd v1.5.1PL0 Copyright (c) Steve Scherf et al.
# Submitted via: audiograbber 1.81.02
#
DISCID=b80fe70d
DTITLE=Frankie Paris And Cold Sweat - 10 Shades Of Blue
DYEAR=2003
DGENRE=Classic Rock
TTITLE0=Frankie Paris And Cold Sweat - Cold Sweat
TTITLE1=Frankie Paris And Cold Sweat - Body and Fender Man
TTITLE2=Frankie Paris And Cold Sweat - Hi, Honey, I'm Home
TTITLE3=Frankie Paris And Cold Sweat - Blues for Breakfast
TTITLE4=Frankie Paris And Cold Sweat - Can't Get Ahead
TTITLE5=Frankie Paris And Cold Sweat - Smoky City
TTITLE6=Frankie Paris And Cold Sweat - (I Can't Get No) Satisfaction
TTITLE7=Frankie Paris And Cold Sweat - Lover Under Cover
TTITLE8=Frankie Paris And Cold Sweat - Can I Come Over
TTITLE9=Frankie Paris And Cold Sweat - 10 Shades of Blue
TTITLE10=Frankie Paris And Cold Sweat - People Get Ready
TTITLE11=Frankie Paris And Cold Sweat - Half-Hearted Lover
TTITLE12=Frankie Paris And Cold Sweat - Smoky City (Urban Mix)
EXTD=
EXTT0=
EXTT1=
EXTT2=
EXTT3=
EXTT4=
EXTT5=
EXTT6=
EXTT7=
EXTT8=
EXTT9=
EXTT10=
EXTT11=
EXTT12=
PLAYORDER=
